#N canvas 907 22 472 444 10;
#X msg 158 64 bang;
#X msg 165 86 stop;
#X obj 163 148 bng 15 250 50 0 empty empty empty 0 -6 0 8 -262144 -1
-1;
#X obj 37 32 dumpOSC 33333;
#X obj 14 36 bng 15 250 50 0 empty empty empty 17 7 0 10 -262144 -1
-1;
#X obj 156 360 sendOSC;
#X msg 158 271 connect localhost 33334;
#X msg 163 336 send /triggered;
#X msg 236 61 2000;
#X obj 25 65 OSCroute /mouse;
#X obj 25 122 OSCroute /position;
#X obj 25 155 unpack f f;
#X obj 25 191 + 400;
#X obj -25 103 print;
#X floatatom -13 221 5 0 0 0 - - -;
#X obj 24 249 s freq;
#N canvas 270 240 618 511 blip_generator 0;
#X obj 97 195 tabwrite~ adsr-output;
#X obj 100 163 r graphit;
#X obj 106 258 *~;
#X obj 183 259 osc~ 880;
#X obj 30 123 adsr 1 50 50 0 0;
#X obj 183 231 r freq;
#N canvas 0 22 450 300 (subpatch) 0;
#X array adsr-output 44100 float 0;
#X coords 0 1.02 44100 -1.02 200 130 1;
#X restore 183 304 graph;
#X text 232 453 ------ 1 second ------;
#X text 385 423 -1;
#X text 392 299 1;
#X msg 248 56 bang;
#X text 292 57 <-- attack and delayed release;
#X obj 259 80 del 500;
#X text 347 159 <-- attack only;
#X msg 248 144 \; pd dsp 1 \; trigger 1 \; graphit bang;
#X text 348 236 <-- release only;
#X msg 247 214 \; pd dsp 1 \; trigger 0 \; graphit bang;
#X msg 259 105 \; trigger 0;
#X obj 185 62 bng 15 250 50 0 empty empty empty 17 7 0 10 -262144 -1
-1;
#X obj 38 79 r trigger;
#X obj 83 348 output~;
#X obj 240 18 inlet;
#X obj 499 24 inlet;
#X obj 500 59 s freq;
#X obj 129 280 r vol;
#X obj 558 24 inlet;
#X obj 129 302 t b f;
#X connect 1 0 0 0;
#X connect 2 0 20 0;
#X connect 2 0 20 1;
#X connect 3 0 2 1;
#X connect 4 0 0 0;
#X connect 4 0 2 0;
#X connect 5 0 3 0;
#X connect 10 0 14 0;
#X connect 10 0 12 0;
#X connect 12 0 17 0;
#X connect 19 0 4 0;
#X connect 21 0 10 0;
#X connect 21 0 18 0;
#X connect 22 0 23 0;
#X connect 24 0 26 0;
#X connect 26 0 20 2;
#X connect 26 1 20 2;
#X coords 0 -1 1 1 130 80 1 30 320;
#X restore 210 169 pd blip_generator;
#X msg 236 82 1000;
#X msg 236 103 500;
#X obj 220 10 r click;
#X obj 93 191 + 200;
#X floatatom 62 221 5 0 0 0 - - -;
#X obj 96 249 s click;
#X obj 164 127 metro;
#X obj 348 45 loadbang;
#X obj 348 116 s vol;
#X obj 348 89 dbtorms;
#X msg 348 67 80;
#X msg 236 40 5000;
#X obj -25 78 spigot;
#X obj -23 35 tgl 15 0 empty empty empty 17 7 0 10 -262144 -1 -1 0
1;
#X connect 0 0 23 0;
#X connect 1 0 23 0;
#X connect 2 0 7 0;
#X connect 2 0 16 0;
#X connect 3 0 4 0;
#X connect 3 0 9 0;
#X connect 3 0 29 0;
#X connect 6 0 5 0;
#X connect 7 0 5 0;
#X connect 8 0 23 1;
#X connect 9 0 10 0;
#X connect 10 0 11 0;
#X connect 11 0 12 0;
#X connect 11 1 20 0;
#X connect 12 0 14 0;
#X connect 12 0 15 0;
#X connect 17 0 23 1;
#X connect 18 0 23 1;
#X connect 19 0 23 1;
#X connect 20 0 21 0;
#X connect 20 0 22 0;
#X connect 23 0 2 0;
#X connect 24 0 17 0;
#X connect 24 0 27 0;
#X connect 26 0 25 0;
#X connect 27 0 26 0;
#X connect 28 0 8 0;
#X connect 29 0 13 0;
#X connect 30 0 29 1;
